<?xml version="1.0" encoding="UTF-8"?>
<svg fill="none" viewBox="0 0 187 103" xmlns="http://www.w3.org/2000/svg">
<g filter="url(#f)">
<path d="M0 0h187v103H0z" fill="#fff"/>
<mask id="e" x="0" y="0" width="187" height="103" style="mask-type:alpha" maskUnits="userSpaceOnUse">
<path d="M.5.5h186v102H.5z" fill="#fff" stroke="#F4F7FC"/>
</mask>
<g mask="url(#e)">
<g filter="url(#d)" opacity=".4">
<path d="M128.307 66.374c3.418-16.623 5.127-24.934 11.352-29.037 6.226-4.102 14.538-2.393 31.161 1.024l2.938.604c16.623 3.418 24.934 5.127 29.037 11.353 4.102 6.225 2.393 14.537-1.024 31.16l-.605 2.938c-3.417 16.623-5.126 24.934-11.352 29.037-6.226 4.102-14.537 2.393-31.16-1.024l-2.938-.604c-16.623-3.418-24.935-5.127-29.037-11.353-4.102-6.225-2.394-14.537 1.024-31.16l.604-2.938Z" fill="#07F"/>
<path d="M163.764 92.073c-16.743-3.442-23.933-16.884-20.404-36.066l8.387 1.724c-2.607 14.076 2.355 21.285 7.001 23.517l4.355-21.182 7.898 1.623-2.486 12.091c4.943.474 11.157-3.99 14.117-9.7l7.897 1.624c-2.852 7.199-9.494 11.576-13.878 13.035 3.541 2.642 8.828 8.738 9.428 17.922l-8.693-1.787c-.672-6.2-4.399-11.656-10.426-13.533l-2.246 10.928-.95-.196Z" fill="#fff"/>
</g>
<path d="M119.014 42.937c5.663-15.998 8.494-23.997 15.223-27.208 6.729-3.21 14.728-.38 30.726 5.284l2.828 1c15.998 5.663 23.997 8.495 27.208 15.224 3.21 6.729.379 14.728-5.284 30.726l-1.001 2.828c-5.663 15.998-8.494 23.997-15.223 27.208-6.729 3.21-14.728.379-30.726-5.284l-2.828-1.001c-15.998-5.663-23.997-8.494-27.208-15.223-3.21-6.73-.379-14.728 5.284-30.726l1.001-2.828Z" fill="#07F"/>
<path d="M150.616 73.252c-16.114-5.704-21.395-20.005-15.271-38.522l8.072 2.857c-4.511 13.586-.583 21.407 3.713 24.254l7.216-20.386 7.601 2.69-4.119 11.637c4.832 1.147 11.598-2.425 15.313-7.674l7.6 2.69c-3.811 6.74-10.99 10.166-15.533 11.01 3.145 3.103 7.547 9.866 6.884 19.045l-8.367-2.961c.184-6.233-2.76-12.149-8.473-14.834l-3.722 10.517-.914-.323Z" fill="#fff"/>
<path d="M24.381 32.795c.521.26.93.646 1.224 1.156.306.499.459 1.071.459 1.717 0 .93-.357 1.717-1.071 2.363-.703.646-1.564.969-2.584.969h-4.896V27.1h4.794c.997 0 1.819.295 2.465.884.657.578.986 1.303.986 2.176 0 .521-.125 1.026-.374 1.513-.25.476-.584.85-1.003 1.122Zm-.561-2.346c0-.453-.159-.822-.476-1.105-.306-.295-.691-.442-1.156-.442h-2.754v3.094h2.754c.476 0 .867-.147 1.173-.442a1.47 1.47 0 0 0 .459-1.105Zm-1.53 6.681c.521 0 .946-.159 1.275-.476.34-.317.51-.72.51-1.207 0-.487-.17-.89-.51-1.207-.329-.317-.754-.476-1.275-.476h-2.856v3.366h2.856Zm10.124 2.091c-1.36 0-2.504-.459-3.434-1.377-.918-.93-1.377-2.074-1.377-3.434 0-1.371.46-2.516 1.377-3.434.93-.918 2.08-1.377 3.451-1.377 1.122 0 2.097.317 2.924.952.828.635 1.366 1.479 1.615 2.533H35.1a2.747 2.747 0 0 0-1.07-1.224 2.922 2.922 0 0 0-1.616-.459c-.532 0-1.02.13-1.462.391-.442.26-.793.623-1.054 1.088-.249.453-.374.963-.374 1.53 0 .85.278 1.564.833 2.142.556.578 1.241.867 2.057.867.601 0 1.134-.153 1.598-.459.476-.306.84-.742 1.088-1.309h1.904c-.26 1.077-.81 1.944-1.649 2.601-.827.646-1.807.969-2.94.969Zm13.62-9.401v1.7h-3.23V39H40.97v-7.48h-3.247v-1.7h8.313Zm8.202 0h2.023l-4.216 9.35c-.533 1.167-1.077 1.978-1.632 2.431-.544.465-1.275.697-2.193.697h-.935v-1.7h.782c.6 0 1.042-.119 1.326-.357.283-.238.595-.731.935-1.479l.204-.425-3.995-8.517h2.057l2.907 6.409 2.737-6.409Zm3.532 0h8.007V39h-1.87v-7.463h-4.25V39h-1.887v-9.18Zm18.375 0h1.462V39h-1.53l-.187-1.122c-.884.895-1.989 1.343-3.315 1.343-1.371 0-2.516-.459-3.434-1.377-.906-.918-1.36-2.063-1.36-3.434 0-1.383.454-2.527 1.36-3.434.918-.918 2.063-1.377 3.434-1.377 1.349 0 2.465.453 3.35 1.36l.22-1.139Zm-5.593 6.749c.578.567 1.298.85 2.16.85.872 0 1.586-.283 2.141-.85.567-.578.85-1.298.85-2.159 0-.873-.283-1.592-.85-2.159-.555-.567-1.27-.85-2.142-.85-.567 0-1.082.13-1.547.391-.453.26-.81.623-1.07 1.088-.261.453-.392.963-.392 1.53 0 .861.284 1.581.85 2.159Zm15.985-9.775v1.411H81.98v-1.411h4.556Zm.493 3.026h1.054V39H86.28v-5.831L81.384 39h-1.088v-9.18h1.82v5.78l4.912-5.78Zm14.249 4.386c.215.09.408.21.578.357.181.136.334.3.459.493.125.181.221.385.289.612.068.227.102.459.102.697 0 .748-.272 1.377-.816 1.887-.544.499-1.224.748-2.04.748h-4.794v-9.18h4.726c.771 0 1.4.221 1.887.663.499.43.748.992.748 1.683 0 .43-.102.827-.306 1.19a2.226 2.226 0 0 1-.833.85Zm-.731-1.734c0-.317-.108-.572-.323-.765-.204-.193-.476-.289-.816-.289h-2.5v2.108h2.5c.34 0 .612-.096.816-.289.215-.193.323-.448.323-.765Zm-1.037 4.879c.374 0 .674-.108.901-.323.238-.215.357-.487.357-.816 0-.34-.119-.618-.357-.833-.238-.215-.544-.323-.918-.323h-2.584v2.295h2.6ZM23.208 47.82v1.683h-4.012V57h-1.853v-9.18h5.865Zm6.569-.221c.907 0 1.723.21 2.448.629.725.408 1.292.98 1.7 1.717.408.737.612 1.558.612 2.465 0 1.383-.453 2.533-1.36 3.451-.895.907-2.029 1.36-3.4 1.36-1.179 0-2.193-.368-3.043-1.105v4.182h-1.887V47.82h1.275l.357 1.122c.884-.895 1.983-1.343 3.298-1.343Zm-2.295 6.97c.567.567 1.28.85 2.142.85.873 0 1.592-.283 2.159-.85.567-.578.85-1.298.85-2.159 0-.861-.283-1.575-.85-2.142-.567-.578-1.28-.867-2.142-.867-.567 0-1.082.13-1.547.391a2.79 2.79 0 0 0-1.088 1.088c-.25.453-.374.963-.374 1.53 0 .861.283 1.581.85 2.159Zm15.315-6.749h2.023l-4.216 9.35c-.532 1.167-1.076 1.978-1.632 2.431-.544.465-1.275.697-2.193.697h-.935v-1.7h.782c.6 0 1.043-.119 1.326-.357.284-.238.595-.731.935-1.479l.204-.425-3.995-8.517h2.057l2.907 6.409 2.737-6.409Zm3.532 0h8.007V57h-1.87v-7.463h-4.25V57H46.33v-9.18Zm10.692 0h8.007V57h-1.87v-7.463h-4.25V57H57.02v-9.18Zm17.236 0h2.023l-4.216 9.35c-.532 1.167-1.076 1.978-1.632 2.431-.544.465-1.275.697-2.193.697h-.935v-1.7h.782c.6 0 1.043-.119 1.326-.357.283-.238.595-.731.935-1.479l.204-.425-3.995-8.517h2.057l2.907 6.409 2.737-6.409ZM24.381 68.795c.521.26.93.646 1.224 1.156.306.499.459 1.071.459 1.717 0 .93-.357 1.717-1.071 2.363-.703.646-1.564.969-2.584.969h-4.896V63.1h4.794c.997 0 1.819.295 2.465.884.657.578.986 1.303.986 2.176 0 .521-.125 1.026-.374 1.513-.25.476-.584.85-1.003 1.122Zm-.561-2.346c0-.453-.159-.822-.476-1.105-.306-.295-.691-.442-1.156-.442h-2.754v3.094h2.754c.476 0 .867-.147 1.173-.442a1.47 1.47 0 0 0 .459-1.105Zm-1.53 6.681c.521 0 .946-.159 1.275-.476.34-.317.51-.72.51-1.207 0-.487-.17-.89-.51-1.207-.329-.317-.754-.476-1.275-.476h-2.856v3.366h2.856ZM35.525 75l-3.723-5.219h-1.394V75h-1.955V63.1h1.955v4.862h1.377l3.4-4.862h2.397l-4.063 5.746L37.956 75h-2.43Zm10.753-1.139c-.93.907-2.096 1.36-3.502 1.36-1.405 0-2.578-.453-3.519-1.36-.93-.918-1.394-2.068-1.394-3.451 0-.907.21-1.728.63-2.465a4.517 4.517 0 0 1 1.767-1.717 5.117 5.117 0 0 1 2.516-.629c.918 0 1.751.21 2.5.629.758.408 1.348.98 1.767 1.717.43.737.646 1.558.646 2.465 0 1.383-.47 2.533-1.41 3.451Zm-3.502-.442c.578 0 1.094-.125 1.547-.374.453-.26.805-.618 1.054-1.071a3.14 3.14 0 0 0 .391-1.564c0-.873-.283-1.592-.85-2.159-.555-.567-1.27-.85-2.142-.85-.873 0-1.592.283-2.159.85-.555.567-.833 1.286-.833 2.159 0 .873.278 1.592.833 2.159.567.567 1.287.85 2.16.85ZM55.82 65.82h1.853V75H55.82v-3.842h-4.25V75H49.7v-9.18h1.87v3.604h4.25V65.82Zm11.798 0v1.7h-3.23V75H62.55v-7.48h-3.247v-1.7h8.313Zm9.074 0h1.462V75h-1.53l-.187-1.122c-.884.895-1.989 1.343-3.315 1.343-1.371 0-2.516-.459-3.434-1.377-.907-.918-1.36-2.063-1.36-3.434 0-1.383.453-2.527 1.36-3.434.918-.918 2.063-1.377 3.434-1.377 1.349 0 2.465.453 3.35 1.36l.22-1.139Zm-5.593 6.749c.578.567 1.298.85 2.16.85.872 0 1.586-.283 2.141-.85.567-.578.85-1.298.85-2.159 0-.873-.283-1.592-.85-2.159-.555-.567-1.27-.85-2.142-.85-.567 0-1.082.13-1.547.391-.453.26-.81.623-1.07 1.088-.262.453-.392.963-.392 1.53 0 .861.283 1.581.85 2.159ZM86.624 75l-2.754-3.91h-1.139V75h-1.887v-9.18h1.887v3.553h1.156l2.499-3.553h2.227l-3.111 4.403L88.953 75h-2.329Zm10.892-9.18v1.7h-3.23V75H92.45v-7.48h-3.247v-1.7h8.313Zm10.111 4.607c0 .17-.011.38-.034.629h-7.446c.114.737.42 1.32.918 1.751.51.43 1.139.646 1.887.646.363 0 .703-.051 1.02-.153.318-.113.595-.266.833-.459.25-.204.454-.448.612-.731h1.989c-.362.975-.94 1.74-1.734 2.295-.793.544-1.7.816-2.72.816-1.348 0-2.476-.459-3.382-1.377-.896-.918-1.343-2.063-1.343-3.434s.447-2.516 1.343-3.434c.906-.918 2.034-1.377 3.382-1.377.918 0 1.734.221 2.448.663a4.376 4.376 0 0 1 1.649 1.751c.386.725.578 1.53.578 2.414Zm-4.675-3.128c-.702 0-1.303.198-1.802.595-.487.397-.81.94-.969 1.632h5.559a3.04 3.04 0 0 0-.561-1.19 2.442 2.442 0 0 0-.969-.765 2.845 2.845 0 0 0-1.258-.272Z" fill="#222B3D"/>
</g>
</g>
<defs>
<filter id="f" x="0" y="0" width="187" height="103" color-interpolation-filters="sRGB" filterUnits="userSpaceOnUse">
<feFlood flood-opacity="0" result="BackgroundImageFix"/>
<feBlend in="SourceGraphic" in2="BackgroundImageFix" result="shape"/>
<feColorMatrix in="SourceAlpha" result="hardAlpha" values="0 0 0 0 0 0 0 0 0 0 0 0 0 0 0 0 0 0 127 0"/>
<feOffset/>
<feGaussianBlur stdDeviation="9"/>
<feComposite in2="hardAlpha" k2="-1" k3="1" operator="arithmetic"/>
<feColorMatrix values="0 0 0 0 0.7 0 0 0 0 0.7 0 0 0 0 0.7 0 0 0 0.05 0"/>
<feBlend in2="shape" result="effect1_innerShadow_708_162"/>
</filter>
<filter id="d" x="79.281" y="-10.061" width="170.91" height="170.91" color-interpolation-filters="sRGB" filterUnits="userSpaceOnUse">
<feFlood flood-opacity="0" result="BackgroundImageFix"/>
<feBlend in="SourceGraphic" in2="BackgroundImageFix" result="shape"/>
<feGaussianBlur result="effect1_foregroundBlur_708_162" stdDeviation="22.5"/>
</filter>
</defs>
</svg>
