<?xml version="1.0" encoding="UTF-8"?>
<svg fill="none" viewBox="0 0 187 103" xmlns="http://www.w3.org/2000/svg">
<rect width="187" height="103" fill="#FAFAFA"/>
<g clip-path="url(#c)" filter="url(#b)">
<rect width="187" height="103" fill="#fff"/>
<g filter="url(#a)" opacity=".4">
<path d="m128.31 66.374c3.418-16.623 5.127-24.934 11.352-29.037 6.226-4.1023 14.538-2.3935 31.161 1.0241l2.938 0.6042c16.623 3.4176 24.934 5.1264 29.037 11.352 4.102 6.2258 2.393 14.537-1.024 31.16l-0.605 2.9385c-3.417 16.623-5.126 24.934-11.352 29.037-6.226 4.102-14.537 2.393-31.16-1.024l-2.938-0.604c-16.623-3.418-24.935-5.127-29.037-11.353-4.102-6.2255-2.394-14.537 1.024-31.16l0.604-2.9385z" fill="#07f"/>
<path d="m163.76 92.074c-16.743-3.4424-23.933-16.885-20.404-36.067l8.387 1.7244c-2.607 14.076 2.355 21.285 7.001 23.517l4.355-21.182 7.898 1.6238-2.486 12.091c4.943 0.474 11.157-3.9912 14.117-9.6995l7.897 1.6237c-2.852 7.1982-9.494 11.575-13.878 13.035 3.541 2.6422 8.828 8.7381 9.428 17.922l-8.693-1.7873c-0.672-6.1998-4.399-11.656-10.426-13.533l-2.246 10.928-0.95-0.1952z" fill="#fff"/>
</g>
<path d="m119.01 42.937c5.663-15.998 8.494-23.997 15.223-27.208s14.728-0.3794 30.726 5.2834l2.828 1.0011c15.998 5.6628 23.997 8.4941 27.208 15.223 3.21 6.7291 0.379 14.728-5.284 30.726l-1.001 2.8281c-5.663 15.998-8.494 23.997-15.223 27.208-6.729 3.2105-14.728 0.3793-30.726-5.2835l-2.828-1.001c-15.998-5.6628-23.997-8.4942-27.208-15.223-3.21-6.7292-0.379-14.728 5.284-30.726l1.001-2.828z" fill="#07f"/>
<path d="m150.62 73.252c-16.114-5.7039-21.395-20.004-15.271-38.522l8.072 2.8571c-4.511 13.586-0.583 21.407 3.713 24.254l7.216-20.386 7.601 2.6904-4.119 11.636c4.832 1.1468 11.598-2.4251 15.313-7.674l7.6 2.6903c-3.811 6.7396-10.99 10.165-15.533 11.01 3.145 3.1023 7.547 9.8651 6.884 19.045l-8.367-2.9615c0.184-6.2333-2.76-12.149-8.473-14.834l-3.722 10.517-0.914-0.3233z" fill="#fff"/>
<text fill="#222B3D" font-family="Mont" font-size="17" font-weight="bold" letter-spacing="0em" style="white-space:pre" xml:space="preserve"><tspan x="16" y="38.675">Вступай в 
</tspan><tspan x="16" y="56.675">группу
</tspan><tspan x="16" y="74.675">ВКонтакте</tspan></text>
</g>
<defs>
<filter id="b" x="0" y="0" width="187" height="103" color-interpolation-filters="sRGB" filterUnits="userSpaceOnUse">
<feFlood flood-opacity="0" result="BackgroundImageFix"/>
<feBlend in="SourceGraphic" in2="BackgroundImageFix" result="shape"/>
<feColorMatrix in="SourceAlpha" result="hardAlpha" values="0 0 0 0 0 0 0 0 0 0 0 0 0 0 0 0 0 0 127 0"/>
<feOffset/>
<feGaussianBlur stdDeviation="9"/>
<feComposite in2="hardAlpha" k2="-1" k3="1" operator="arithmetic"/>
<feColorMatrix values="0 0 0 0 0.7 0 0 0 0 0.7 0 0 0 0 0.7 0 0 0 0.05 0"/>
<feBlend in2="shape" result="effect1_innerShadow_4_2"/>
</filter>
<filter id="a" x="79.281" y="-10.061" width="170.91" height="170.91" color-interpolation-filters="sRGB" filterUnits="userSpaceOnUse">
<feFlood flood-opacity="0" result="BackgroundImageFix"/>
<feBlend in="SourceGraphic" in2="BackgroundImageFix" result="shape"/>
<feGaussianBlur result="effect1_foregroundBlur_4_2" stdDeviation="22.5"/>
</filter>
<clipPath id="c">
<rect width="187" height="103" fill="#fff"/>
</clipPath>
</defs>
</svg>
