<svg width="187" height="103" viewBox="0 0 187 103" fill="none" xmlns="http://www.w3.org/2000/svg">
<rect width="187" height="103" fill="white"/>
<mask id="mask0_710_220" style="mask-type:alpha" maskUnits="userSpaceOnUse" x="0" y="0" width="187" height="103">
<rect x="0.5" y="0.5" width="186" height="102" fill="white" stroke="#F4F7FC"/>
</mask>
<g mask="url(#mask0_710_220)">
<g opacity="0.4" filter="url(#filter0_f_710_220)">
<path d="M128.307 66.3738C131.725 49.7508 133.434 41.4395 139.659 37.3371C145.885 33.2348 154.197 34.9436 170.82 38.3612L173.758 38.9654C190.381 42.383 198.692 44.0918 202.795 50.3176C206.897 56.5434 205.188 64.8548 201.771 81.4777L201.166 84.4162C197.749 101.039 196.04 109.35 189.814 113.453C183.588 117.555 175.277 115.846 158.654 112.429L155.716 111.825C139.093 108.407 130.781 106.698 126.679 100.472C122.577 94.2465 124.285 85.9352 127.703 69.3123L128.307 66.3738Z" fill="#0077FF"/>
<path d="M163.764 92.0735C147.021 88.6311 139.831 75.1889 143.36 56.0066L151.747 57.731C149.14 71.8069 154.102 79.0164 158.748 81.2477L163.103 60.0657L171.001 61.6895L168.515 73.7803C173.458 74.2543 179.672 69.7891 182.632 64.0808L190.529 65.7045C187.677 72.9027 181.035 77.2797 176.651 78.7392C180.192 81.3814 185.479 87.4773 186.079 96.6613L177.386 94.874C176.714 88.6742 172.987 83.2181 166.96 81.341L164.714 92.2687L163.764 92.0735Z" fill="white"/>
</g>
<path d="M119.014 42.9367C124.677 26.9387 127.508 18.9398 134.237 15.7291C140.966 12.5184 148.965 15.3497 164.963 21.0125L167.791 22.0136C183.789 27.6764 191.788 30.5077 194.999 37.2368C198.209 43.9659 195.378 51.9648 189.715 67.9628L188.714 70.7909C183.051 86.7888 180.22 94.7877 173.491 97.9985C166.762 101.209 158.763 98.3778 142.765 92.715L139.937 91.714C123.939 86.0512 115.94 83.2198 112.729 76.4908C109.519 69.7616 112.35 61.7627 118.013 45.7647L119.014 42.9367Z" fill="#0077FF"/>
<path d="M150.616 73.2518C134.502 67.5479 129.221 53.2474 135.345 34.7295L143.417 37.5866C138.906 51.1727 142.834 58.994 147.13 61.8408L154.346 41.4552L161.947 44.1456L157.828 55.7819C162.66 56.9287 169.426 53.3568 173.141 48.1079L180.741 50.7982C176.93 57.5378 169.751 60.9635 165.208 61.8087C168.353 64.911 172.755 71.6738 172.092 80.8535L163.725 77.892C163.909 71.6587 160.965 65.7434 155.252 63.0583L151.53 73.5751L150.616 73.2518Z" fill="white"/>
<path d="M24.381 32.795C24.9023 33.0557 25.3103 33.441 25.605 33.951C25.911 34.4497 26.064 35.022 26.064 35.668C26.064 36.5973 25.707 37.385 24.993 38.031C24.2903 38.677 23.429 39 22.409 39H17.513V27.1H22.307C23.3043 27.1 24.126 27.3947 24.772 27.984C25.4293 28.562 25.758 29.2873 25.758 30.16C25.758 30.6813 25.6333 31.1857 25.384 31.673C25.1347 32.149 24.8003 32.523 24.381 32.795ZM23.82 30.449C23.82 29.9957 23.6613 29.6273 23.344 29.344C23.038 29.0493 22.6527 28.902 22.188 28.902H19.434V31.996H22.188C22.664 31.996 23.055 31.8487 23.361 31.554C23.667 31.2593 23.82 30.891 23.82 30.449ZM22.29 37.13C22.8113 37.13 23.2363 36.9713 23.565 36.654C23.905 36.3367 24.075 35.9343 24.075 35.447C24.075 34.9597 23.905 34.5573 23.565 34.24C23.2363 33.9227 22.8113 33.764 22.29 33.764H19.434V37.13H22.29ZM32.4144 39.221C31.0544 39.221 29.9098 38.762 28.9804 37.844C28.0624 36.9147 27.6034 35.77 27.6034 34.41C27.6034 33.0387 28.0624 31.894 28.9804 30.976C29.9098 30.058 31.0601 29.599 32.4314 29.599C33.5534 29.599 34.5281 29.9163 35.3554 30.551C36.1828 31.1857 36.7211 32.03 36.9704 33.084H35.1004C34.8624 32.5627 34.5054 32.1547 34.0294 31.86C33.5534 31.554 33.0151 31.401 32.4144 31.401C31.8818 31.401 31.3944 31.5313 30.9524 31.792C30.5104 32.0527 30.1591 32.4153 29.8984 32.88C29.6491 33.3333 29.5244 33.8433 29.5244 34.41C29.5244 35.26 29.8021 35.974 30.3574 36.552C30.9128 37.13 31.5984 37.419 32.4144 37.419C33.0151 37.419 33.5478 37.266 34.0124 36.96C34.4884 36.654 34.8511 36.2177 35.1004 35.651H37.0044C36.7438 36.7277 36.1941 37.5947 35.3554 38.252C34.5281 38.898 33.5478 39.221 32.4144 39.221ZM46.0346 29.82V31.52H42.8046V39H40.9686V31.52H37.7216V29.82H46.0346ZM54.2357 29.82H56.2587L52.0427 39.17C51.51 40.3373 50.966 41.1477 50.4107 41.601C49.8667 42.0657 49.1357 42.298 48.2177 42.298H47.2827V40.598H48.0647C48.6653 40.598 49.1073 40.479 49.3907 40.241C49.674 40.003 49.9857 39.51 50.3257 38.762L50.5297 38.337L46.5347 29.82H48.5917L51.4987 36.229L54.2357 29.82ZM57.7678 29.82H65.7748V39H63.9048V31.537H59.6548V39H57.7678V29.82ZM76.1432 29.82H77.6052V39H76.0752L75.8882 37.878C75.0042 38.7733 73.8992 39.221 72.5732 39.221C71.2019 39.221 70.0572 38.762 69.1392 37.844C68.2325 36.926 67.7792 35.7813 67.7792 34.41C67.7792 33.0273 68.2325 31.8827 69.1392 30.976C70.0572 30.058 71.2019 29.599 72.5732 29.599C73.9219 29.599 75.0382 30.0523 75.9222 30.959L76.1432 29.82ZM70.5502 36.569C71.1282 37.1357 71.8479 37.419 72.7092 37.419C73.5819 37.419 74.2959 37.1357 74.8512 36.569C75.4179 35.991 75.7012 35.2713 75.7012 34.41C75.7012 33.5373 75.4179 32.8177 74.8512 32.251C74.2959 31.6843 73.5819 31.401 72.7092 31.401C72.1425 31.401 71.6269 31.5313 71.1622 31.792C70.7089 32.0527 70.3519 32.4153 70.0912 32.88C69.8305 33.3333 69.7002 33.8433 69.7002 34.41C69.7002 35.2713 69.9835 35.991 70.5502 36.569ZM86.5351 26.794V28.205H81.9791V26.794H86.5351ZM87.0281 29.82H88.0821V39H86.2801V33.169L81.3841 39H80.2961V29.82H82.1151V35.6L87.0281 29.82ZM101.277 34.206C101.492 34.2967 101.685 34.4157 101.855 34.563C102.036 34.699 102.189 34.8633 102.314 35.056C102.439 35.2373 102.535 35.4413 102.603 35.668C102.671 35.8947 102.705 36.127 102.705 36.365C102.705 37.113 102.433 37.742 101.889 38.252C101.345 38.7507 100.665 39 99.8489 39H95.0549V29.82H99.7809C100.552 29.82 101.181 30.041 101.668 30.483C102.167 30.9137 102.416 31.4747 102.416 32.166C102.416 32.5967 102.314 32.9933 102.11 33.356C101.906 33.7187 101.628 34.002 101.277 34.206ZM100.546 32.472C100.546 32.1547 100.438 31.8997 100.223 31.707C100.019 31.5143 99.7469 31.418 99.4069 31.418H96.9079V33.526H99.4069C99.7469 33.526 100.019 33.4297 100.223 33.237C100.438 33.0443 100.546 32.7893 100.546 32.472ZM99.5089 37.351C99.8829 37.351 100.183 37.2433 100.41 37.028C100.648 36.8127 100.767 36.5407 100.767 36.212C100.767 35.872 100.648 35.5943 100.41 35.379C100.172 35.1637 99.8659 35.056 99.4919 35.056H96.9079V37.351H99.5089ZM23.208 47.82V49.503H19.196V57H17.343V47.82H23.208ZM29.7769 47.599C30.6836 47.599 31.4996 47.8087 32.2249 48.228C32.9502 48.636 33.5169 49.2083 33.9249 49.945C34.3329 50.6817 34.5369 51.5033 34.5369 52.41C34.5369 53.7927 34.0836 54.943 33.1769 55.861C32.2816 56.7677 31.1482 57.221 29.7769 57.221C28.5982 57.221 27.5839 56.8527 26.7339 56.116V60.298H24.8469V47.82H26.1219L26.4789 48.942C27.3629 48.0467 28.4622 47.599 29.7769 47.599ZM27.4819 54.569C28.0486 55.1357 28.7626 55.419 29.6239 55.419C30.4966 55.419 31.2162 55.1357 31.7829 54.569C32.3496 53.991 32.6329 53.2713 32.6329 52.41C32.6329 51.5487 32.3496 50.8347 31.7829 50.268C31.2162 49.69 30.5022 49.401 29.6409 49.401C29.0742 49.401 28.5586 49.5313 28.0939 49.792C27.6292 50.0527 27.2666 50.4153 27.0059 50.88C26.7566 51.3333 26.6319 51.8433 26.6319 52.41C26.6319 53.2713 26.9152 53.991 27.4819 54.569ZM42.7972 47.82H44.8202L40.6042 57.17C40.0715 58.3373 39.5275 59.1477 38.9722 59.601C38.4282 60.0657 37.6972 60.298 36.7792 60.298H35.8442V58.598H36.6262C37.2268 58.598 37.6688 58.479 37.9522 58.241C38.2355 58.003 38.5472 57.51 38.8872 56.762L39.0912 56.337L35.0962 47.82H37.1532L40.0602 54.229L42.7972 47.82ZM46.3293 47.82H54.3363V57H52.4663V49.537H48.2163V57H46.3293V47.82ZM57.0207 47.82H65.0277V57H63.1577V49.537H58.9077V57H57.0207V47.82ZM74.2571 47.82H76.2801L72.0641 57.17C71.5315 58.3373 70.9875 59.1477 70.4321 59.601C69.8881 60.0657 69.1571 60.298 68.2391 60.298H67.3041V58.598H68.0861C68.6868 58.598 69.1288 58.479 69.4121 58.241C69.6955 58.003 70.0071 57.51 70.3471 56.762L70.5511 56.337L66.5561 47.82H68.6131L71.5201 54.229L74.2571 47.82ZM24.381 68.795C24.9023 69.0557 25.3103 69.441 25.605 69.951C25.911 70.4497 26.064 71.022 26.064 71.668C26.064 72.5973 25.707 73.385 24.993 74.031C24.2903 74.677 23.429 75 22.409 75H17.513V63.1H22.307C23.3043 63.1 24.126 63.3947 24.772 63.984C25.4293 64.562 25.758 65.2873 25.758 66.16C25.758 66.6813 25.6333 67.1857 25.384 67.673C25.1347 68.149 24.8003 68.523 24.381 68.795ZM23.82 66.449C23.82 65.9957 23.6613 65.6273 23.344 65.344C23.038 65.0493 22.6527 64.902 22.188 64.902H19.434V67.996H22.188C22.664 67.996 23.055 67.8487 23.361 67.554C23.667 67.2593 23.82 66.891 23.82 66.449ZM22.29 73.13C22.8113 73.13 23.2363 72.9713 23.565 72.654C23.905 72.3367 24.075 71.9343 24.075 71.447C24.075 70.9597 23.905 70.5573 23.565 70.24C23.2363 69.9227 22.8113 69.764 22.29 69.764H19.434V73.13H22.29ZM35.5254 75L31.8024 69.781H30.4084V75H28.4534V63.1H30.4084V67.962H31.7854L35.1854 63.1H37.5824L33.5194 68.846L37.9564 75H35.5254ZM46.2782 73.861C45.3489 74.7677 44.1815 75.221 42.7762 75.221C41.3709 75.221 40.1979 74.7677 39.2572 73.861C38.3279 72.943 37.8632 71.7927 37.8632 70.41C37.8632 69.5033 38.0729 68.6817 38.4922 67.945C38.9229 67.2083 39.5122 66.636 40.2602 66.228C41.0195 65.8087 41.8582 65.599 42.7762 65.599C43.6942 65.599 44.5272 65.8087 45.2752 66.228C46.0345 66.636 46.6239 67.2083 47.0432 67.945C47.4739 68.6817 47.6892 69.5033 47.6892 70.41C47.6892 71.7927 47.2189 72.943 46.2782 73.861ZM42.7762 73.419C43.3542 73.419 43.8699 73.2943 44.3232 73.045C44.7765 72.7843 45.1279 72.4273 45.3772 71.974C45.6379 71.5093 45.7682 70.988 45.7682 70.41C45.7682 69.5373 45.4849 68.8177 44.9182 68.251C44.3629 67.6843 43.6489 67.401 42.7762 67.401C41.9035 67.401 41.1839 67.6843 40.6172 68.251C40.0619 68.8177 39.7842 69.5373 39.7842 70.41C39.7842 71.2827 40.0619 72.0023 40.6172 72.569C41.1839 73.1357 41.9035 73.419 42.7762 73.419ZM55.8194 65.82H57.6724V75H55.8194V71.158H51.5694V75H49.6994V65.82H51.5694V69.424H55.8194V65.82ZM67.6166 65.82V67.52H64.3866V75H62.5506V67.52H59.3036V65.82H67.6166ZM76.6911 65.82H78.1531V75H76.6231L76.4361 73.878C75.5521 74.7733 74.4471 75.221 73.1211 75.221C71.7497 75.221 70.6051 74.762 69.6871 73.844C68.7804 72.926 68.3271 71.7813 68.3271 70.41C68.3271 69.0273 68.7804 67.8827 69.6871 66.976C70.6051 66.058 71.7497 65.599 73.1211 65.599C74.4697 65.599 75.5861 66.0523 76.4701 66.959L76.6911 65.82ZM71.0981 72.569C71.6761 73.1357 72.3957 73.419 73.2571 73.419C74.1297 73.419 74.8437 73.1357 75.3991 72.569C75.9657 71.991 76.2491 71.2713 76.2491 70.41C76.2491 69.5373 75.9657 68.8177 75.3991 68.251C74.8437 67.6843 74.1297 67.401 73.2571 67.401C72.6904 67.401 72.1747 67.5313 71.7101 67.792C71.2567 68.0527 70.8997 68.4153 70.6391 68.88C70.3784 69.3333 70.2481 69.8433 70.2481 70.41C70.2481 71.2713 70.5314 71.991 71.0981 72.569ZM86.624 75L83.87 71.09H82.731V75H80.844V65.82H82.731V69.373H83.887L86.386 65.82H88.613L85.502 70.223L88.953 75H86.624ZM97.5161 65.82V67.52H94.2861V75H92.4501V67.52H89.2031V65.82H97.5161ZM107.627 70.427C107.627 70.597 107.616 70.8067 107.593 71.056H100.147C100.261 71.7927 100.567 72.3763 101.065 72.807C101.575 73.2377 102.204 73.453 102.952 73.453C103.315 73.453 103.655 73.402 103.972 73.3C104.29 73.1867 104.567 73.0337 104.805 72.841C105.055 72.637 105.259 72.3933 105.417 72.11H107.406C107.044 73.0847 106.466 73.8497 105.672 74.405C104.879 74.949 103.972 75.221 102.952 75.221C101.604 75.221 100.476 74.762 99.5695 73.844C98.6741 72.926 98.2265 71.7813 98.2265 70.41C98.2265 69.0387 98.6741 67.894 99.5695 66.976C100.476 66.058 101.604 65.599 102.952 65.599C103.87 65.599 104.686 65.82 105.4 66.262C106.114 66.6927 106.664 67.2763 107.049 68.013C107.435 68.7383 107.627 69.543 107.627 70.427ZM102.952 67.299C102.25 67.299 101.649 67.4973 101.15 67.894C100.663 68.2907 100.34 68.8347 100.181 69.526H105.74C105.627 69.0613 105.44 68.6647 105.179 68.336C104.919 67.996 104.596 67.741 104.21 67.571C103.836 67.3897 103.417 67.299 102.952 67.299Z" fill="#222B3D"/>
</g>
<defs>
<filter id="filter0_f_710_220" x="79.2808" y="-10.061" width="170.912" height="170.912" filterUnits="userSpaceOnUse" color-interpolation-filters="sRGB">
<feFlood flood-opacity="0" result="BackgroundImageFix"/>
<feBlend mode="normal" in="SourceGraphic" in2="BackgroundImageFix" result="shape"/>
<feGaussianBlur stdDeviation="22.5" result="effect1_foregroundBlur_710_220"/>
</filter>
</defs>
</svg>
