<svg xmlns="http://www.w3.org/2000/svg" fill="none" viewBox="0 0 44 44"><rect width="44" height="44" fill="#F4F7FC" rx="22"/><mask id="a" fill="#fff"><path d="M27.333 26H16.667a5.333 5.333 0 0 0-5.334 5.333V34h21.334v-2.667A5.333 5.333 0 0 0 27.333 26ZM22 20.667A5.333 5.333 0 1 0 22 10a5.333 5.333 0 0 0 0 10.667Z"/></mask><path fill="#fff" d="M32.667 34v50c27.614 0 50-22.386 50-50h-50Zm-21.334 0h-50c0 27.614 22.386 50 50 50V34Zm5.334 42h10.666V-24H16.667V76Zm-34-44.667V34h100v-2.667h-100ZM61.333 34v-2.667h-100V34h100Zm-34 42C2.665 76-17.333 56.002-17.333 31.333h100C82.667.773 57.893-24 27.333-24V76ZM16.667-24C-13.893-24-38.667.774-38.667 31.333h100C61.333 56.002 41.335 76 16.667 76V-24Zm-39.334 39.333c0-24.668 19.998-44.666 44.667-44.666v100c30.56 0 55.333-24.774 55.333-55.334h-100ZM22-29.333c24.669 0 44.667 19.998 44.667 44.666h-100c0 30.56 24.773 55.334 55.333 55.334v-100Zm44.667 44.666C66.667 40.003 46.669 60 22 60V-40c-30.56 0-55.333 24.774-55.333 55.333h100ZM22 60c-24.67 0-44.667-19.998-44.667-44.667h100C77.333-15.227 52.56-40 22-40V60ZM11.333 84h21.334V-16H11.333V84Z" mask="url(#a)"/></svg>